<svg xmlns="http://www.w3.org/2000/svg" viewBox="0 0 43.99 72.87"><defs><style>.cls-1,.cls-2,.cls-3{fill:none;stroke:#fff;}.cls-1,.cls-2{stroke-miterlimit:10;}.cls-1,.cls-3{stroke-width:2px;}.cls-3{stroke-linecap:round;stroke-linejoin:round;}</style></defs><g id="Layer_2" data-name="Layer 2"><g id="Layer_1-2" data-name="Layer 1"><path class="cls-1" d="M15.49,33.91V71.55H5.56V33.91a5.08,5.08,0,0,1,5-5.18A5.08,5.08,0,0,1,15.49,33.91Z"/><path class="cls-1" d="M5.56,33.91a5.08,5.08,0,0,1,5-5.18,5.08,5.08,0,0,1,5,5.18"/><line class="cls-2" x1="5.56" y1="57.06" x2="15.16" y2="57.06"/><line class="cls-2" x1="5.56" y1="63.61" x2="15.49" y2="63.61"/><path class="cls-1" d="M39.33,34.22V71.87H29.4V34.22a5,5,0,1,1,9.93,0Z"/><path class="cls-1" d="M29.4,34.22a5,5,0,1,1,9.93,0"/><line class="cls-2" x1="29.4" y1="57.37" x2="39" y2="57.37"/><line class="cls-2" x1="29.4" y1="63.93" x2="39.33" y2="63.93"/><circle class="cls-1" cx="10.36" cy="10.36" r="9.36"/><circle class="cls-2" cx="10.36" cy="10.36" r="6.28"/><line class="cls-1" x1="10.36" y1="19.72" x2="10.52" y2="28.73"/><polyline class="cls-3" points="42.99 1 30.58 10.77 34.2 15.63 34.36 29.04"/></g></g></svg>